<?xml version="1.0" encoding="iso-8859-1"?>
<!-- Uploaded to: SVG Repo, www.svgrepo.com, Generator: SVG Repo Mixer Tools -->
<svg height="800px" width="800px" version="1.1" id="Layer_1" xmlns="http://www.w3.org/2000/svg" xmlns:xlink="http://www.w3.org/1999/xlink" 
	 viewBox="0 0 390.875 390.875" xml:space="preserve">
<g>
	<path style="fill:#FFFFFF;" d="M292.661,290.026h-46.61v76.412C264.992,358.293,283.481,330.689,292.661,290.026z"/>
	<path style="fill:#FFFFFF;" d="M224.394,148.58c-7.046-0.517-13.576-3.814-18.424-8.145l-17.325,7.564
		c-4.331,9.762-7.564,20.622-10.279,32.517h46.093C224.394,180.58,224.394,148.58,224.394,148.58z"/>
	<path style="fill:#FFFFFF;" d="M246.051,143.731v36.848h46.093c-4.331-18.941-10.279-35.749-18.424-49.325L246.051,143.731z"/>
	<path style="fill:#FFFFFF;" d="M156.063,180.58c1.616-7.046,3.232-14.093,4.848-20.622l-12.994,5.947
		c-2.715,1.099-4.848,1.099-7.046,0.517l-16.808-4.331c-3.814,5.947-7.046,11.895-10.279,18.424
		C113.784,180.58,156.063,180.58,156.063,180.58z"/>
	<path style="fill:#FFFFFF;" d="M224.394,366.439v-76.412h-46.61C186.964,330.689,205.388,358.293,224.394,366.439z"/>
	<path style="fill:#FFFFFF;" d="M224.394,202.236h-49.842c-1.099,10.861-2.198,21.657-2.198,33.034
		c0,11.378,0.517,22.756,2.198,33.034h49.842V202.236z"/>
	<path style="fill:#FFFFFF;" d="M318.132,202.236c1.099,10.861,1.616,21.657,1.616,33.034c0,11.378-0.517,22.238-1.616,33.034h46.61
		c2.715-10.279,4.331-21.657,4.331-33.034c0-11.378-1.616-22.238-4.331-33.034H318.132L318.132,202.236z"/>
	<path style="fill:#FFFFFF;" d="M298.091,235.271c0-11.378-0.517-22.238-2.198-33.034h-49.842v66.133h49.842
		C297.51,258.026,298.091,246.649,298.091,235.271z"/>
	<path style="fill:#FFFFFF;" d="M314.318,290.026c-5.43,27.087-14.61,50.424-27.087,67.75c30.901-12.994,55.273-37.366,69.366-67.75
		H314.318z"/>
	<path style="fill:#FFFFFF;" d="M152.314,268.37c-1.099-10.861-1.616-21.657-1.616-33.034c0-11.378,0.517-22.238,2.198-33.034
		h-46.61c-2.715,10.861-4.331,21.657-4.331,33.034c0,11.378,1.616,22.238,4.331,33.034H152.314z"/>
	<path style="fill:#FFFFFF;" d="M183.215,357.776c-12.477-17.325-21.657-40.663-27.087-67.75h-42.279
		C127.36,320.41,152.314,344.782,183.215,357.776z"/>
	<path style="fill:#FFFFFF;" d="M356.596,180.58c-11.895-25.988-32-48.226-57.988-62.319c-1.616,1.616-3.232,2.715-4.848,3.814
		c9.244,16.291,16.808,36.331,21.139,58.505H356.596z"/>
</g>
<path style="fill:#FFC10D;" d="M235.19,346.915c-61.22,0-111.644-49.842-111.644-111.644c0-61.22,49.842-111.644,111.644-111.644
	c61.22,0,111.644,49.842,111.644,111.644S296.475,346.915,235.19,346.915z"/>
<g>
	<path style="fill:#56ACE0;" d="M86.18,128.54l56.372,15.192l52.04-22.756c-0.517-1.616-0.517-3.232-0.517-4.331l-12.994,5.43
		c-5.43,2.198-11.895,0-14.093-5.43c-2.198-5.43,0-11.895,5.43-14.093l89.406-39.564c14.61-7.046,31.418-1.616,40.663,10.861
		l60.186-26.57c4.331-2.198,5.43-4.331,5.43-7.564c0,0-0.517-2.715-3.232-1.616c-5.43,2.198-11.895,0-14.093-5.43
		c-3.814-9.244-14.61-13.576-23.855-9.244L86.18,128.54z"/>
	<polygon style="fill:#56ACE0;" points="85.663,106.301 33.041,75.982 27.611,78.697 57.477,118.778 	"/>
	<path style="fill:#56ACE0;" d="M280.766,104.685l-48.226,21.139c-5.947,2.715-12.994,0-15.709-5.947
		c-2.715-5.947,0-12.994,5.947-15.709l48.226-21.139c6.529-2.715,12.994,0.517,15.709,5.947
		C289.429,94.923,286.714,101.97,280.766,104.685z"/>
</g>
<path style="fill:#194F82;" d="M308.952,99.255c0-1.616,0.517-2.715,0.517-4.331l62.319-27.669
	c11.378-4.848,17.907-14.61,18.424-26.57c1.616-10.279-8.663-24.372-23.855-24.372c-10.861-14.61-30.901-20.622-48.226-12.994
	L110.035,95.441l-70.982-41.18c-3.232-1.616-6.529-2.198-9.762-0.517L6.536,64.022c-5.947,2.715-8.663,10.861-4.331,16.291
	l42.796,58.505l0,0c1.616,2.198,3.232,3.232,5.947,4.331l51.459,13.576C88.314,180.58,80.75,207.667,80.75,235.853
	c0,85.657,69.366,155.022,155.022,155.022s155.022-69.366,155.022-155.022C390.213,178.382,358.213,125.824,308.952,99.255z
	 M350.649,32.604c2.198,5.43,8.663,7.564,14.093,5.43c2.715-1.099,3.232,1.616,3.232,1.616c0,3.232-1.099,5.43-5.43,7.564
	l-60.121,26.57c-9.244-12.477-25.988-17.325-40.663-10.861l-89.406,39.564c-5.43,2.198-8.145,8.663-5.43,14.093
	c2.198,5.43,8.663,8.145,14.093,5.43l12.994-5.43c0,1.616,0,3.232,0.517,4.331l-52.04,22.756l-56.372-15.192L326.73,23.36
	C336.039,19.61,346.835,23.36,350.649,32.604z M174.487,268.37c-1.099-10.279-2.198-21.657-2.198-33.034
	c0-11.378,0.517-22.238,2.198-33.034h49.842v66.133h-49.842V268.37z M224.394,290.026v76.412
	c-18.941-7.564-37.366-35.232-46.61-76.412H224.394z M140.936,166.487c2.198,0.517,4.848,0.517,7.046-0.517l12.994-5.947
	c-2.198,6.529-3.814,13.576-4.848,20.622h-42.279c2.715-6.529,6.529-12.477,10.279-18.424L140.936,166.487z M178.302,180.58
	c2.715-11.378,5.947-22.756,10.279-32.517l17.325-7.564c5.43,4.331,11.895,7.564,18.424,8.145v32h-46.028V180.58z M216.766,119.877
	c-2.715-5.947,0-12.994,5.947-15.709l48.226-21.139c6.529-2.715,12.994,0.517,15.709,5.947c2.715,5.947,0,12.994-5.947,15.709
	l-48.226,21.139C226.528,128.54,219.481,125.824,216.766,119.877z M292.144,180.58h-46.093v-36.848l27.669-12.477
	C281.801,144.766,288.33,161.574,292.144,180.58z M246.051,290.026h46.61c-8.663,40.663-27.087,68.267-46.61,76.412V290.026z
	 M246.051,268.37v-66.133h49.842c1.099,10.861,2.198,21.657,2.198,33.034c0,11.378-0.517,22.756-2.198,33.034
	C295.893,268.37,246.051,268.37,246.051,268.37z M293.76,122.01c1.616-1.099,3.814-2.715,4.848-3.814
	c25.988,14.093,46.093,36.331,57.988,62.319h-42.279C309.986,158.342,302.94,138.301,293.76,122.01z M106.221,202.236h46.61
	c-1.099,10.861-2.198,21.657-2.198,33.034c0,11.378,0.517,22.238,1.616,33.034h-46.61c-2.715-10.279-4.331-21.657-4.331-33.034
	C101.889,223.893,103.506,213.097,106.221,202.236z M156.063,290.026c5.43,27.087,15.192,50.424,27.087,67.75
	c-30.901-12.994-55.855-37.366-69.366-67.75H156.063z M287.231,357.776c12.477-17.325,21.657-40.663,27.087-67.75h42.279
	C343.085,320.41,318.132,344.782,287.231,357.776z M364.225,268.37h-46.61c1.099-10.861,1.616-21.657,1.616-33.034
	c0-11.378-0.517-22.238-1.616-33.034h46.093c2.715,10.861,4.331,21.657,4.331,33.034C368.556,246.649,366.94,257.509,364.225,268.37
	z M33.041,75.982l52.558,30.319l-28.186,12.477L27.611,78.697L33.041,75.982z"/>
</svg>